{"title":"Gambit 2012 DVDRip XviD juggs","uid":8217019,"size":748000629,"categoryP":"video","categoryS":"movies","magnet":"?xt=urn:btih:9cf40f9f58cab71c718ee38ad661c09b52ac4dea&amp;dn=Gambit+2012+DVDRip+XviD+juggs&amp;tr=udp%3A%2F%2Ftracker.openbittorrent.com%3A80&amp;tr=udp%3A%2F%2Fopen.demonii.com%3A1337&amp;tr=udp%3A%2F%2Ftracker.coppersurfer.tk%3A6969&amp;tr=udp%3A%2F%2Fexodus.desync.com%3A6969","seeders":7,"leechers":2,"uploader":"juggs99","files":3,"time":1362363135,"description":"Source : LS\n\n\nFormat : AVI\nFormat/Info : Audio Video Interleave\nFile size : 701 MiB\nDuration : 1h 25mn\nOverall bit rate : 1 145 Kbps\nWriting library : VirtualDub build 32842/release\n\nVideo\nID : 0\nFormat : MPEG-4 Visual\nFormat profile : Advanced Simple@L5\nFormat settings, BVOP : 4\nFormat settings, QPel : No\nFormat settings, GMC : No warppoints\nFormat settings, Matrix : Default (H.263)\nMuxing mode : Packed bitstream\nCodec ID : XVID\nCodec ID/Hint : XviD\nDuration : 1h 25mn\nBit rate : 1 008 Kbps\nWidth : 640 pixels\nHeight : 272 pixels\nDisplay aspect ratio : 2.35:1\nFrame rate : 25.000 fps\nColor space : YUV\nChroma subsampling : 4:2:0\nBit depth : 8 bits\nScan type : Progressive\nCompression mode : Lossy\nBits/(Pixel*Frame) : 0.232\nStream size : 616 MiB (88%)\nWriting library : XviD 64\n\nAudio\nID : 1\nFormat : MPEG Audio\nFormat version : Version 1\nFormat profile : Layer 3\nCodec ID : 55\nCodec ID/Hint : MP3\nDuration : 1h 25mn\nBit rate mode : Constant\nBit rate : 128 Kbps\nChannel(s) : 2 channels\nSampling rate : 44.1 KHz\nCompression mode : Lossy\nStream size : 78.3 MiB (11%)\nAlignment : Split accross interleaves\nInterleave, duration : 40 ms (1.00 video frame)\nInterleave, preload duration : 500 ms\nWriting library : LAME3.99r\nEncoding settings : -m s -V 4 -q 3 -lowpass 17 -b 128\n\n\nPlot\nAn art curator decides to seek revenge on his abusive boss by conning him into buying a fake Monet, but his plan requires the help of an eccentric and unpredictable Texas rodeo queen.\n &lt;a href=&quot;\nhttp://www.shotpix.com/images/87926659074929193087.png&quot; rel=&quot;nofollow&quot; target=&quot;_NEW&quot;&gt;\nhttp://www.shotpix.com/images/87926659074929193087.png&lt;/a&gt; &lt;a href=&quot;\nhttp://www.shotpix.com/images/56957979063585166089.png&quot; rel=&quot;nofollow&quot; target=&quot;_NEW&quot;&gt;\nhttp://www.shotpix.com/images/56957979063585166089.png&lt;/a&gt; &lt;a href=&quot;\nhttp://www.shotpix.com/images/34616872967490870736.png&quot; rel=&quot;nofollow&quot; target=&quot;_NEW&quot;&gt;\nhttp://www.shotpix.com/images/34616872967490870736.png&lt;/a&gt; &lt;a href=&quot;\nhttp://www.shotpix.com/images/44292319415731641099.png&quot; rel=&quot;nofollow&quot; target=&quot;_NEW&quot;&gt;\nhttp://www.shotpix.com/images/44292319415731641099.png&lt;/a&gt;","torrent":{"xt":"urn:btih:9cf40f9f58cab71c718ee38ad661c09b52ac4dea","amp;dn":"Gambit+2012+DVDRip+XviD+juggs","amp;tr":["udp%3A%2F%2Ftracker.openbittorrent.com%3A80","udp%3A%2F%2Fopen.demonii.com%3A1337","udp%3A%2F%2Ftracker.coppersurfer.tk%3A6969","udp%3A%2F%2Fexodus.desync.com%3A6969"],"infoHash":"9cf40f9f58cab71c718ee38ad661c09b52ac4dea","infoHashBuffer":{"type":"Buffer","data":[156,244,15,159,88,202,183,28,113,142,227,138,214,97,192,155,82,172,77,234]},"announce":[],"urlList":[]}}